<?xml version="1.0" encoding="utf-8" ?>
<svg xmlns="http://www.w3.org/2000/svg" xmlns:xlink="http://www.w3.org/1999/xlink" width="1040" height="172">
	<path fill="#E0E0E0" d="M932.487 52.0059C935.087 51.8482 937.753 52.488 940.305 52.9434L940.425 76.295L930.405 76.0423C924.378 76.06 918.352 77.7025 914.018 82.0859C911.364 84.7713 909.578 88.2525 908.624 91.8848C906.663 99.3501 906.975 107.073 906.914 114.722L906.974 145.05L881.858 144.968C881.9 142.814 882.252 140.217 880.926 138.377L880.841 138.262C881.278 137.72 881.67 137.015 881.725 136.312C881.894 134.157 881.59 131.799 881.625 129.603L881.72 107.463L882.054 54.8139L905.888 54.7849L906.06 71.4297C907.208 68.9959 908.442 66.5925 910.024 64.4065C913.124 60.1194 919.664 55.2334 924.709 53.4978C927.1 52.6749 929.981 52.4089 932.487 52.0059Z"/>
	<path fill="#E0E0E0" d="M520.331 20.8211L545.852 20.8483L545.971 144.094L544.536 144.958L521.041 144.931C521.345 132.981 521.812 23.4363 520.784 21.5603L520.331 20.8211Z"/>
	<path fill="#E0E0E0" d="M827.254 28.0059L852.571 27.9631L852.675 54.7963L870.915 54.7873L870.909 71.993L852.936 71.9731L853.113 118.509C853.256 120.383 853.491 122.597 855.059 123.879C859.311 127.356 866.653 125.383 871.549 124.903C871.126 128.694 871.199 132.508 871.113 136.317C871.079 137.772 871.272 139.657 870.596 140.956L870.099 141.813C870.764 143.082 871.045 143.435 870.896 144.855C868.59 145.483 866.387 145.951 863.989 145.994C854.435 146.167 840.691 147.01 833.247 139.782C830.97 137.57 829.36 134.73 828.686 131.625C827.261 125.065 828.058 117.12 828.065 110.369L827.96 71.9404L812.839 71.9421L812.986 54.7999L828.163 54.7382C828.18 50.2668 828.957 31.3788 827.644 28.7147L827.254 28.0059Z"/>
	<path fill="#E0E0E0" d="M756.376 52.5132L763.286 52.1336C774.772 51.9694 786.009 56.3853 794.215 64.3551C805.961 75.7644 807.171 90.7232 807.386 106.103L742.714 106.149L744.021 113.899C745.365 118.938 748.503 123.141 753.047 125.747C757.884 128.52 764.618 128.713 769.892 127.287C776.429 125.52 780.491 122.108 783.85 116.287C785.142 115.735 787.046 115.955 788.454 115.945L798.662 115.911L805.645 116.004L805.803 116.355C804.51 120.933 802.653 124.919 800.133 128.957C794.491 137.997 785.615 143.681 775.373 146.05C761.913 149.163 746.966 146.442 735.314 139.144C726.239 133.46 721.15 122.803 718.845 112.666C715.765 99.1205 718.135 83.8274 725.56 72.1053C729.993 65.1072 738.476 58.2779 746.233 55.2038C749.441 53.9321 753.009 53.269 756.376 52.5132ZM757.794 71.7933C752.552 73.2411 748.868 75.1592 746.081 80.0421C744.26 83.232 743.472 86.4466 742.681 90.0019L765.654 89.9451L782.19 89.9757C780.775 84.0065 779.325 77.6734 773.72 74.227C769.119 71.398 763.015 70.9461 757.794 71.7933Z"/>
	<path fill="#E0E0E0" d="M983.226 52.5128C993.683 51.332 1007.72 52.2286 1017.21 56.9521C1023.38 60.0223 1027.32 64.4543 1029.36 71.0202C1030.98 76.1949 1030.42 82.6619 1030.43 88.0535L1030.44 115.78C1030.48 125.899 1030.31 135.303 1033.56 145.006L1007.96 144.957L1006.25 137.321C1002.82 139.795 999.099 142.803 995.242 144.552C988.786 147.479 980.67 147.392 973.744 147.198C965.247 146.961 957.26 144.174 951.552 137.724C949.843 135.794 948.656 133.537 946.883 131.664C947.314 130.039 945.872 126.552 945.762 124.631C945.541 120.802 945.309 116.086 946.136 112.338C949.101 98.9091 961.87 93.503 974.322 92.0701L991.4 89.8733C994.363 89.3572 998.054 88.7344 1000.66 87.1267C1002.11 86.2292 1003.33 84.7182 1004.46 83.4537C1005.32 79.6022 1004.34 76.3232 1002.55 72.9479C1000.76 71.8121 999.04 70.6786 996.937 70.244C991.55 69.1307 984.484 68.3774 979.668 71.5664C975.279 74.4726 974.344 78.1149 973.349 83.0445L948.171 82.9937C948.867 76.8458 950.332 71.2454 954.108 66.241C961.224 56.8097 972.166 54.0657 983.226 52.5128ZM970.722 122.784C971.263 123.433 971.811 123.971 971.827 124.863C975.363 127.152 979.947 129.584 984.231 129.696C989.718 129.84 994.977 128.958 999.121 125.005C1004.51 119.862 1003.78 112.386 1003.93 105.557C994.792 105.454 986.148 106.404 977.588 109.796C974.573 110.991 972.024 113.733 971.568 117.063C971.297 119.046 971.617 120.755 970.779 122.658L970.722 122.784Z"/>
	<path fill="#555" d="M970.722 122.784C970.686 118.38 970.371 114.093 973.751 110.656C979.072 105.245 990.373 105.452 997.433 104.026C1000.25 103.457 1002.91 102.347 1005.52 101.17C1005.53 109.19 1006.55 118.992 1000.38 125.172C996.4 129.16 991.29 130.431 985.813 130.417C981.353 130.405 976.512 129.713 973.217 126.402L971.827 124.863C975.363 127.152 979.947 129.584 984.231 129.696C989.718 129.84 994.977 128.958 999.121 125.005C1004.51 119.862 1003.78 112.386 1003.93 105.557C994.792 105.454 986.148 106.404 977.588 109.796C974.573 110.991 972.024 113.733 971.568 117.063C971.297 119.046 971.617 120.755 970.779 122.658L970.722 122.784Z"/>
	<path fill="#E0E0E0" d="M453.176 52.5126L458.827 52.2692C469.08 52.142 481.936 55.0724 489.45 62.4312C499.131 71.9119 504.1 82.6846 504.259 96.3389C504.432 111.304 502.324 123.356 491.408 134.503C485.606 140.427 477.924 145.427 469.635 146.814C467.036 147.25 464.116 147.094 461.474 147.122C449.471 147.635 438.762 145.838 429.037 138.388C419.562 131.13 413.975 121.196 412.419 109.381C410.617 95.6906 412.118 80.7469 420.762 69.5148C429.337 58.3716 439.657 54.2831 453.176 52.5126ZM456.034 71.286C450.208 72.4138 445.486 74.0288 442.002 79.2175C436.786 86.9834 435.83 99.756 437.648 108.771C438.868 114.821 440.963 121.138 446.378 124.726C450.099 127.191 454.689 128.593 459.189 128.085C464.694 127.611 469.733 125.915 473.398 121.582C479.353 114.544 480.087 102.973 479.304 94.118C478.754 87.9071 476.823 80.3226 471.81 76.1654C467.27 72.4016 461.89 70.9937 456.034 71.286Z"/>
	<path fill="#E0E0E0" d="M613.071 52.5127C617.875 51.8564 622.625 52.3453 627.287 53.6121C635.254 55.7769 639 60.2692 642.932 67.1312L647.382 61.9906C654.169 55.1325 661.475 52.1337 671.104 52.1196C679.471 52.1073 688.43 54.3042 694.486 60.3585C697.589 63.4604 700.088 67.8131 701.188 72.059C703.83 82.2624 702.869 94.0867 702.903 104.559L702.953 144.994L677.775 144.957L677.989 110.338C677.993 101.049 679.087 89.9627 676.393 81.0344C675.444 77.8905 673.952 75.7809 671.011 74.2186C667.774 72.4995 661.844 71.6008 658.279 72.7499C653 74.4519 649.479 78.9677 647.848 84.0914C646.216 89.2165 646.616 95.4146 646.602 100.755L646.67 125.416C646.669 127.468 647.145 131.631 646.237 133.344L645.731 134.2L646.18 134.839C647.409 136.808 646.653 142.554 646.6 144.986L621.991 144.947L621.949 124.709L621.786 98.6844C621.729 93.3085 622.037 87.4192 620.845 82.1659C620.31 79.8058 619.425 77.6555 617.677 75.9359C615.02 73.3205 611.091 72.4284 607.46 72.4519C602.793 72.4821 599.342 73.6785 596.005 77.0646C593.442 79.6659 591.723 83.2501 590.998 86.8149C589.636 93.5103 590.417 101.387 590.449 108.238L590.637 144.982L565.924 144.933L566.041 54.8585L588.956 54.8578L589.319 67.1154C595.906 58.4025 602.444 54.2947 613.071 52.5127Z"/>
	<path fill="#E0E0E0" d="M291.279 20.8176L336.438 20.7965L354.37 20.8052C359.66 20.8116 365.002 20.6819 370.135 22.1586C378.935 24.6902 386.81 30.7956 391.203 38.7947C395.396 46.4297 396.08 58.2428 393.64 66.5329C392.177 71.5013 389.518 76.9165 385.505 80.3384C382.881 82.5756 379.287 84.305 376.24 85.9589C378.814 87.0504 381.559 88.2047 383.705 90.0284C396.078 100.538 392.574 120.914 395.59 135.369C396.284 138.696 397.707 141.835 399.055 144.94L381.684 144.953C378.344 144.951 374.751 145.217 371.465 144.636L369.898 142.322C370.031 142.018 370.138 141.678 370.146 141.344C370.208 138.688 369.189 135.24 368.843 132.505C367.842 124.597 367.51 116.251 365.257 108.585C364.468 105.9 363.489 103.193 361.457 101.182C355.622 95.4073 345.018 96.722 337.479 96.7114L319.451 96.7262L319.485 144.923L292.363 144.899C291.348 134.52 292.172 123.24 292.166 112.771L292.259 42.9792C292.256 39.2127 293.009 23.8645 291.737 21.558L291.279 20.8176ZM318.778 42.2387L318.843 42.3332L319.181 42.9349C320.017 44.5474 319.529 49.0163 319.533 50.944C319.549 59.378 319.154 67.973 319.707 76.3842L337.715 76.2872C343.965 76.2907 357.636 77.8708 362.317 72.9373C362.498 72.7473 362.604 72.5463 362.693 72.3011C364.845 71.1889 365.891 68.9747 366.598 66.7576C368.287 61.4669 368.146 54.7901 365.565 49.8047C363.933 46.6546 361.116 44.796 357.796 43.7579C352.117 41.9824 345.848 42.2164 339.963 42.2048L318.778 42.2387Z"/>
	<path fill="#E0E0E0" d="M151.954 7.40924C157.783 6.30643 165.073 6.5955 170.914 7.5997C175.291 8.35228 179.95 9.58076 182.629 13.4265C185.529 17.5901 182.295 30.5802 181.395 35.7076C195.67 35.7595 207.953 34.4717 219.05 45.5484C232.86 59.3347 237.57 79.8372 237.539 98.8031C237.509 116.633 231.623 137.329 218.787 150.119C214.301 154.589 207.619 158.308 201.398 159.587C197.348 160.42 192.746 160.14 188.617 160.145L168.362 160.158L94.1992 160.142L59.3077 160.166C53.9086 160.162 46.9301 160.874 41.7227 159.586C35.3595 158.012 28.8833 153.986 24.2682 149.386C11.3645 136.527 6.13724 116.348 6.10355 98.5172C6.07083 81.2038 11.2598 58.9955 23.8599 46.3909C28.3952 41.854 34.1476 37.9293 40.4642 36.4239C44.5713 35.4451 49.1686 35.6334 53.3696 35.6267L71.3895 35.6139L130.668 35.6456C132.495 31.9298 134.403 28.145 135.841 24.2602C137.056 20.9755 137.322 16.8496 139.258 13.927C142.216 9.46175 147.039 8.4208 151.954 7.40924ZM144.86 25.3625C139.358 42.2352 128.185 55.7815 112.336 63.8369C108.891 65.588 102.303 69.4475 98.5156 69.0399C97.1525 68.4338 96.2418 67.7769 95.1919 66.7198C94.5639 64.8805 94.6801 64.6095 95.2148 62.7173C96.8355 60.7106 99.3989 59.9114 101.685 58.8783L110.954 54.3409C115.565 51.8475 119.887 48.7044 123.384 44.7806L69.4249 44.7859C75.56 51.4025 80.6125 58.8724 83.5613 67.4496C84.5079 70.203 85.2668 74.7469 86.8199 77.0307C91.5969 77.008 115.146 75.938 117.551 78.2852C118.302 79.0177 119.024 80.1254 119.008 81.1835C118.99 82.3912 118.421 83.5322 117.552 84.3677C116.697 85.1886 115.473 85.7248 114.312 85.915C111.657 86.3497 108.388 86.0242 105.67 86.0246L88.2692 85.9733C88.9442 96.4245 88.9097 105.9 87.075 116.263C92.3975 116.247 124.2 115.159 126.469 117.374C127.542 118.422 127.836 119.564 128.019 121.009C127.749 122.383 127.053 123.651 125.844 124.428C123.813 125.733 118.037 125.125 115.496 125.126C105.507 125.128 95.1606 125.67 85.2099 125.039C84.9187 125.02 84.5467 124.765 84.3373 124.968C84.0977 125.201 83.712 126.983 83.5846 127.386C82.7906 129.895 81.987 132.631 80.6493 134.912L101.518 134.926C104.66 134.939 108.378 134.581 111.46 135.072C112.591 135.252 113.655 135.691 114.484 136.497C115.252 137.244 115.534 138.26 115.766 139.274C115.39 141.048 114.864 141.876 113.496 143.06C110.57 144.204 106.56 143.687 103.412 143.689L81.5972 143.635C80.0481 143.628 76.9055 143.205 75.5339 143.599C75.3171 143.662 73.7188 145.93 73.3796 146.351C71.817 148.294 70.0197 150.128 68.026 151.635L123.145 151.665L175.359 151.695L190.948 151.677C194.738 151.669 198.533 151.849 202.249 150.952C205.501 150.167 210.071 147.01 212.407 144.688L216.489 140.023C215.113 139.225 208.714 139.802 206.758 139.803L171.596 139.797C168.39 139.791 162.926 140.46 160.019 139.488C158.465 138.968 157.396 137.58 156.991 136.042C156.823 135.402 157.122 134.464 157.232 133.802C158.008 132.624 158.923 131.359 160.399 131.076C165.723 130.056 172.706 130.904 178.234 130.905L222.206 130.932C224.23 125.727 226.384 120.414 227.671 114.968L203.024 114.956C199.552 114.947 195.413 115.372 192.008 114.823C190.976 114.656 189.986 114.173 189.25 113.424C188.647 112.809 188.264 111.901 187.931 111.115C188.033 109.31 188.214 108.114 189.687 106.828C191.889 104.904 223.52 105.896 228.696 105.898C229.419 94.3563 228.652 81.5639 224.534 70.653C223.285 67.3446 221.411 64.209 219.7 61.1194L207.128 61.1133C205.437 61.1011 203.14 61.3708 201.585 60.6647C200.712 60.2687 200.001 59.506 199.634 58.6018C198.93 56.871 199.242 55.7233 199.831 54.0354C203.12 51.1239 207.897 51.9117 212.112 51.863C208.691 48.8379 205.473 46.3366 200.985 45.1545C198.974 44.625 196.378 44.8894 194.299 44.8765L179.503 44.8876C177.966 50.6873 174.902 56.6615 171.962 61.8604C170.619 64.2343 169.342 66.779 167.324 68.6583C166.036 69.098 164.918 69.392 163.628 68.78C162.445 68.2194 161.679 67.3273 161.267 66.0998C160.65 64.2616 161.752 62.3442 162.576 60.7196C163.957 57.9958 165.745 55.4801 167.025 52.7082C170.661 44.8363 173.302 35.1916 173.996 26.541C170.908 27.1106 167.589 27.9469 164.472 28.1386C157.678 28.5565 151.305 27.2591 144.86 25.3625ZM44.403 44.847C37.2078 48.3885 33.4598 55.5657 30.9634 62.9046C24.834 80.9235 25.3008 106.691 33.86 123.915C35.6139 127.444 39.6719 133.385 43.5481 134.706C45.3593 135.323 49.3134 135.391 51.0352 134.53C56.041 132.029 58.6536 127.571 60.305 122.426C63.8057 111.52 64.9131 84.8279 59.5235 74.3994C58.2186 71.8746 55.9075 68.0457 53.0282 67.1635C52.2605 66.9284 51.6126 67.0411 50.9021 67.4114C47.0883 69.3986 44.4305 76.2456 43.3221 80.0775C40.3272 90.4306 40.5054 103.943 44.896 113.917C46.1376 116.737 48.7045 119.898 49.056 122.937C49.2497 124.612 47.8363 125.798 46.7188 126.746C45.1523 127.042 44.3436 127.247 42.9102 126.3C41.4961 125.367 40.4327 123.479 39.5923 122.062C36.8406 117.422 34.8409 112.523 33.9205 107.194C31.7002 94.3402 32.5288 76.9985 40.3029 65.9945C42.7427 62.5409 46.3485 59.693 50.6008 58.9603C53.8185 58.4058 57.0802 59.11 59.7411 60.9931C66.8447 66.0202 69.234 74.7993 70.601 82.9551C71.6914 89.4606 71.619 96.2093 71.5205 102.784C70.794 115.407 70.0384 129.277 59.9198 138.311C56.3252 141.521 51.0818 143.83 46.1732 143.522C40.1955 143.147 35.3705 140.032 31.5214 135.603C27.3715 130.827 24.8489 124.868 22.9156 118.913C18.9114 106.582 17.6057 94.0843 18.5492 81.1314L20.1047 69.036C19.3064 71.4146 18.1525 73.6638 17.5112 76.0912C12.9055 93.5222 13.4765 114.63 21.6398 131.002C26.1745 140.096 31.787 147.476 41.8063 150.848C45.3858 152.053 52.2813 151.932 55.6894 150.239C67.6544 144.297 73.3899 132.854 77.3807 120.765C83.1234 103.37 81.3649 81.3646 73.1063 65.0951C68.7651 56.543 62.4791 48.3659 52.9836 45.3029C50.4953 44.5002 47.0261 44.8337 44.403 44.847ZM154.803 15.9756C153.063 16.2869 151.918 16.205 150.66 17.5044C154.721 19.4858 162.208 19.412 166.643 18.836C168.633 18.3651 170.48 17.8402 172.364 17.0354C166.295 15.9298 160.947 15.745 154.803 15.9756Z"/>
	<path fill="#E0E0E0" d="M144.301 130.048L150.131 135.124L144.456 140.76L139.088 135.29L144.301 130.048Z"/>
	<path fill="#E0E0E0" d="M114.517 96.3926L119.867 102.226L114.582 107.767L109.234 102.241L114.517 96.3926Z"/>
	<path fill="#E0E0E0" d="M177.138 104.768C179.151 105.568 181.537 108.783 183.079 110.388C180.953 112.036 179.517 114.358 177.289 115.98C177.004 114.427 173.399 111.659 172.161 110.487C173.982 108.693 175.834 106.989 177.138 104.768Z"/>
	<path fill="#E0E0E0" d="M216.422 84.0419C218.559 85.0947 220.663 87.8431 222.329 89.5813C220.508 91.6262 218.736 93.8519 216.329 95.2266C216.035 93.6565 212.579 90.9231 211.355 89.7228C213.046 88.0841 215.32 86.2679 216.367 84.1535L216.422 84.0419Z"/>
	<path fill="#E0E0E0" d="M130.817 77.1201C134.26 76.9608 140.761 75.9835 143.457 78.1885C144.445 79.7186 144.585 80.1256 144.717 81.941C143.94 83.921 143.053 84.7729 141.381 86.0089C138.186 86.0373 131.933 86.884 129.433 84.6796C128.083 83.4889 128.003 82.3289 127.87 80.6726C128.404 78.8853 129.384 78.1702 130.817 77.1201Z"/>
	<path fill="#E0E0E0" d="M139.685 116.358L140.671 116.227C143.714 115.89 150.853 115.283 153.261 117.308C154.643 118.47 154.755 119.604 154.892 121.263C153.936 123.182 153.498 123.791 151.71 125.043C148.885 125.109 140.041 125.94 138.117 124.085C136.66 122.68 136.666 121.631 136.6 119.74C137.318 118.055 138.223 117.348 139.685 116.358Z"/>
	<path fill="#E0E0E0" d="M127.835 97.9129L143.261 97.7987C145.564 97.7989 148.453 97.4406 150.374 98.9393C151.446 99.7761 151.64 101.238 151.797 102.49C151.375 104.557 150.595 105.36 149.059 106.679L133.867 106.797C131.568 106.788 127.877 106.962 126.155 105.192C125.002 104.008 124.872 102.809 124.89 101.221C125.411 99.6224 126.548 98.8707 127.835 97.9129Z"/>
	<path fill="#E0E0E0" d="M156.748 34.8444C157.81 34.9287 159.127 35.1044 160.101 35.5378C161.567 36.1912 162.165 37.3812 162.697 38.8142C161.516 47.0165 152.108 61.4508 145.601 66.6546L145.225 66.591C144.51 66.44 143.746 66.3482 143.097 65.9905C141.458 65.0878 140.771 63.5826 140.307 61.8997C140.861 59.4825 142.534 57.5888 143.93 55.5981L149.355 47.207C151.192 44.0343 152.258 40.3564 154.229 37.2998C154.854 36.3296 155.837 35.5371 156.748 34.8444Z"/>
	<path fill="#E0E0E0" d="M163.534 85.4916C171.623 84.4658 180.536 85.1308 188.711 85.0972C193.145 85.079 200.596 84.1097 204.579 85.8685C205.289 86.5784 206.258 87.4792 206.583 88.4481C206.899 89.3909 206.818 90.5732 206.364 91.4607C205.402 93.339 204.498 93.4434 202.659 94.0162C198.005 94.6046 165.005 94.9747 162.636 93.2243C161.652 91.8948 161.208 90.9448 161.01 89.2979C161.493 87.493 162.073 86.6519 163.534 85.4916Z"/>
</svg>
